inDegrees=no
num_controls=7
num_derivatives=13
num_iterations=129
num_multipliers=7
num_parameters=0
num_slacks=7
num_states=26
objective=4.990869
objective_accelerations=0.470515
objective_balance=0.031293
objective_effort=0.287490
objective_height=4.137877
objective_ligament=0.063694
solver_duration=1426.348774
status=Solve_Succeeded
success=true
DataType=double
version=3
OpenSimVersion=4.4-2022-07-23-0e9fedc
endheader
time	/jointset/ground_pelvis/pelvis_tilt/value	/jointset/ground_pelvis/pelvis_tx/value	/jointset/ground_pelvis/pelvis_ty/value	/jointset/hip_l/hip_flexion_l/value	/jointset/hip_l/hip_adduction_l/value	/jointset/hip_l/hip_rotation_l/value	/jointset/back/lumbar_extension/value	/jointset/patellofemoral_l/patellar_flexion_l/value	/jointset/knee_l/knee_flexion_l/value	/jointset/knee_l/knee_adduction_l/value	/jointset/knee_l/knee_rotation_l/value	/jointset/ankle_l/ankle_angle_l/value	/jointset/subtalar_l/subtalar_angle_l/value	/jointset/ground_pelvis/pelvis_tilt/speed	/jointset/ground_pelvis/pelvis_tx/speed	/jointset/ground_pelvis/pelvis_ty/speed	/jointset/hip_l/hip_flexion_l/speed	/jointset/hip_l/hip_adduction_l/speed	/jointset/hip_l/hip_rotation_l/speed	/jointset/back/lumbar_extension/speed	/jointset/patellofemoral_l/patellar_flexion_l/speed	/jointset/knee_l/knee_flexion_l/speed	/jointset/knee_l/knee_adduction_l/speed	/jointset/knee_l/knee_rotation_l/speed	/jointset/ankle_l/ankle_angle_l/speed	/jointset/subtalar_l/subtalar_angle_l/speed	/forceset/tau_hip_flexion_l	/forceset/tau_hip_adduction_l	/forceset/tau_hip_rotation_l	/forceset/tau_knee_flexion_l	/forceset/tau_ankle_angle_l	/forceset/tau_subtalar_angle_l	/forceset/tau_lumbar_extension	lambda_cid13_p0	lambda_cid13_p1	lambda_cid13_p2	lambda_cid13_p3	lambda_cid13_p4	lambda_cid13_p5	lambda_cid14_p0	/jointset/ground_pelvis/pelvis_tilt/accel	/jointset/ground_pelvis/pelvis_tx/accel	/jointset/ground_pelvis/pelvis_ty/accel	/jointset/hip_l/hip_flexion_l/accel	/jointset/hip_l/hip_adduction_l/accel	/jointset/hip_l/hip_rotation_l/accel	/jointset/back/lumbar_extension/accel	/jointset/patellofemoral_l/patellar_flexion_l/accel	/jointset/knee_l/knee_flexion_l/accel	/jointset/knee_l/knee_adduction_l/accel	/jointset/knee_l/knee_rotation_l/accel	/jointset/ankle_l/ankle_angle_l/accel	/jointset/subtalar_l/subtalar_angle_l/accel	gamma_cid13_p0	gamma_cid13_p1	gamma_cid13_p2	gamma_cid13_p3	gamma_cid13_p4	gamma_cid13_p5	gamma_cid14_p0
1.5	-0.4345156610682642	-0.06743897602766988	0.7885616601693617	1.06100549888504	-0.4157897168415429	-0.318946349563949	-0.2245079767686761	0.537020610941855	0.5370206109417065	-0.1745068325320566	-0.157993945058969	-0.06161902116215447	-0.09478162453452095	0.88565747541498	0.4068644110929571	0.406818786776291	-2.308826402697027	0.2172008264176233	-0.4877718580353578	0.3153653972999801	-1.294612688892647	-1.294612688892619	0.0001953215420228327	0.09165167330569211	0.07558849771499408	0.2680041071281291	-0.2041907845300035	0.0177705431307261	-0.002269360951326744	-0.1454214913958058	0.09470383844897816	0.05443582057981854	0.186874266430052	-3.349328828211457	-25.80042340050121	6.91327128429338	-8.43300712214781	-525.8170335935646	-67.38667194184401	-36.86703697424303	0.5671161436245785	0.6903935939953193	-0.3160579469197468	-1.374712173501532	0.3959564050903717	-0.07562556498579676	1.43866947422951	-0.8584185880148477	-0.8584185880148402	0.01627945223001246	0.2427470671840391	0.09636616687061163	0.5060721938377376	-4.701195818336434e-08	4.488485682567945e-07	4.528642914154938e-08	1.680977254077698e-07	1.148998894352904e-07	-1.362851737324195e-07	6.138076479890712e-08
1.51	-0.4256312082011385	-0.06333623642143113	0.7926132283171763	1.037850593029598	-0.4135987032881382	-0.3238282156161051	-0.2212835526938972	0.5240334993965868	0.5240334993965355	-0.1745047900785139	-0.1570665874400415	-0.06085840088034582	-0.09207709893722299	0.8911040204219005	0.4136321343707657	0.403409566580324	-2.321830406961819	0.2209746717052218	-0.4885418953924125	0.3294847587676324	-1.30262506125616	-1.302625061256165	0.0002145930408043496	0.09380767355605148	0.07653385834498966	0.2728750943171329	-0.1973386822391319	0.01687322568802149	-0.002382610604387528	-0.1438741577103363	0.09258783015876133	0.05276715025428033	0.1815105102292516	-3.819759815497206	-25.06951499829555	6.883742271127151	-7.972765089842857	-522.4403860798276	-67.38910579218462	-37.26384624511208	0.5140498206896037	0.6622876647019107	-0.3661182217700772	-1.21460131563114	0.3639295770602868	-0.06871432160400562	1.39337064968781	-0.7449752973815085	-0.7449752973863947	-0.004944597878215452	0.2001701652389123	0.09336331426204478	0.4736502393500908	-4.480564267472155e-08	4.54853111866944e-07	3.176201829585215e-08	1.638673353480893e-07	1.290408548610264e-07	-1.328610002919636e-07	6.235891920097946e-08
1.52	-0.416696164655652	-0.05916735438840868	0.7966281514298639	1.014575375778976	-0.4113707850845633	-0.3287159863419406	-0.2179189747711109	0.510971798380314	0.5109717983803541	-0.1745024940292983	-0.1561180410863566	-0.06008837853159795	-0.08932465581645127	0.8957756110873797	0.4200928964497003	0.3994897797509537	-2.332888681733131	0.2245817564514471	-0.4889527927710134	0.3433961669014753	-1.309530583094154	-1.309530583094191	0.0002460406763664882	0.09588942025749375	0.07746891110290532	0.2775876118228718	-0.1904865799482562	0.01597590824531693	-0.00249586025743358	-0.1423268240248707	0.09047182186854275	0.05109847992874133	0.1761467540284564	-4.299859835358715	-24.33730205907656	6.854449033578965	-7.487111572575808	-519.188200854352	-67.41152457835368	-37.64155845969083	0.4121252753363022	0.6290013542205197	-0.4181712736004071	-0.9855662748053935	0.3626042968156901	-0.003797569295040566	1.397078807467537	-0.6370484829111155	-0.6370484829111157	0.0187146795860571	0.2278963574006167	0.09430459245463529	0.4743782571847257	-3.954997361529705e-08	4.531865449964509e-07	9.127755325844891e-09	1.547245776873894e-07	1.484959842323808e-07	-1.299947209323712e-07	6.372697444542743e-08
1.53	-0.4077182787947392	-0.05493547762888395	0.8006013798253431	0.9911992573002811	-0.4091076722114115	-0.3336059517035737	-0.2144165550954759	0.4978464767390796	0.4978464767390894	-0.1744999934684489	-0.155148904937796	-0.05930914156147483	-0.08652597067423826	0.8996673569539144	0.4262230188655532	0.3950741948751912	-2.341997832581395	0.2280099351419145	-0.4889788309900385	0.3570360717604247	-1.315341068322517	-1.31534106832238	0.0002551592482656468	0.09792552885393155	0.07837583057988316	0.2821188967172795	-0.183555296734043	0.01492555712530382	-0.002632091841293674	-0.1408205711953868	0.0884050805519245	0.04939347958096364	0.1706771053938084	-4.767916755693372	-23.5923872346876	6.824235892762772	-6.975714404255286	-515.9461255097515	-67.42219690309084	-38.00126395579495	0.3575571554593741	0.5961287315694106	-0.4654703579185391	-0.823021454382568	0.3282124043508376	0.007275616942777191	1.339691855218973	-0.5241603109603756	-0.5241603109342088	-0.007743638430720352	0.1895852226635349	0.08848454459616599	0.4378621830211759	-3.105436640816701e-08	4.433694232402755e-07	-2.318572552624165e-08	1.403624294506066e-07	1.735974127959547e-07	-1.277212040336962e-07	6.550929933489952e-08
1.54	-0.3987055038925322	-0.05064407743594038	0.8045280087193938	0.967742160920195	-0.4068112200015159	-0.3384943209343683	-0.2107792872652294	0.4846688278919302	0.4846688278919088	-0.1744973525387583	-0.1541597842808974	-0.05852091561272689	-0.08368290096759065	0.9027534193463479	0.4319975831334674	0.3901698794652562	-2.349084262011482	0.2312496237999234	-0.488633566603101	0.3703657978237902	-1.319996024277339	-1.319996024277027	0.0002741144432609025	0.0998863219262982	0.07926670682793313	0.2864645247097823	-0.1766240135198262	0.01387520600529038	-0.002768323425115911	-0.1393143183659089	0.08633833923530487	0.04768847923318468	0.1652074567591648	-5.243964284068375	-22.846353331306	6.79416430440077	-6.447070908707976	-512.8031048984013	-67.44931046527554	-38.34240933693626	0.2509885805160455	0.5578897246327938	-0.5159173804349425	-0.581021991169685	0.324906290323947	0.07046295189747494	1.335043048350708	-0.4059426282028708	-0.4059426282028691	0.02068200420519412	0.2128332525863847	0.09109594666906705	0.4372468768036979	-2.40779867904379e-08	4.337890326008394e-07	-4.914306724947392e-08	1.276471136885559e-07	1.962550380513754e-07	-1.238073023986562e-07	6.637722043930742e-08
1.55	-0.3896659042361843	-0.0462967906011951	0.8084032127314399	0.9442243032825797	-0.4044833307565361	-0.3433773459523636	-0.2070104655393258	0.4714503379829024	0.4714503379828873	-0.1744945401812851	-0.1531513600805462	-0.05772393252546804	-0.08079736227773579	0.905027089517412	0.4373919563901699	0.3847938646984477	-2.354137376474679	0.234293957935457	-0.4879128831803231	0.3833324027231536	-1.323501717685664	-1.323501717685577	0.0002910966458758762	0.1017815966615629	0.08012537709359858	0.2906078903569508	-0.1696831123877806	0.01281224681663686	-0.00292400135553108	-0.1378270565611732	0.08430688132276204	0.04587303268857255	0.1596904619686674	-5.719397485142231	-22.05508828508997	6.75988339780842	-5.869561584710383	-509.7524904603678	-67.39015334441987	-38.66457958200337	0.1946315338439047	0.5200591762836679	-0.5599568375815576	-0.4149810663825059	0.2889823806916924	0.08172083133567612	1.267547515534579	-0.2928599384713571	-0.2928599385050136	-0.007306449684765915	0.1752899945905823	0.08256903837506811	0.3975267938650671	-1.885202156919236e-08	4.244813973785163e-07	-6.777703128076582e-08	1.168292353430445e-07	2.160969768865328e-07	-1.180033922630219e-07	6.619158935657619e-08
1.56	-0.3806077528184372	-0.04189759042386394	0.8122223539332624	0.9206664095218358	-0.4021260410890947	-0.3482513941773585	-0.2031139621034674	0.4582027956915281	0.4582027956915143	-0.1744914605573772	-0.1521245000507271	-0.05691849944118071	-0.07787146085437087	0.9064637716261723	0.4423802516506462	0.3789573174205434	-2.357091486637387	0.2371297082919339	-0.4868382080028341	0.395902139814737	-1.325806500746951	-1.325806500747088	0.0003275677295140999	0.103573487820592	0.08095670623365575	0.2945370714117846	-0.1627422112557283	0.01174928762798466	-0.003079679285920357	-0.1363397947564388	0.08227542341021997	0.04405758614396205	0.154173467178175	-6.201920134545737	-21.26272972110591	6.725597119607966	-5.279040093005595	-506.7844497362937	-67.3444328516083	-38.96758953521428	0.08359096805526907	0.4766741253875793	-0.6080238826540995	-0.161221131071826	0.2831895345125943	0.141261302839708	1.255669486794662	-0.1657605587952372	-0.1657605587952397	0.02457978040976184	0.1921565373392696	0.08562772154741993	0.3944099583366983	-1.325984769391179e-08	4.135611704486928e-07	-8.65403965229648e-08	1.052934095281815e-07	2.373160916398499e-07	-1.123979130157891e-07	6.592061089605949e-08
1.57	-0.3715394257084538	-0.03745061915488172	0.815980897409737	0.8970894420099677	-0.3997414704186363	-0.3531128372653242	-0.1990939645425892	0.4449381143611532	0.444938114361152	-0.1744880469715933	-0.1510801197758062	-0.05610497909487129	-0.07490742566109865	0.9070568560514316	0.4469377868605499	0.3726796317434665	-2.357939516579463	0.2397447715585076	-0.4853901011880728	0.4080145167854508	-1.326921984171214	-1.326921984171254	0.0003539584652704693	0.1052839756267812	0.08174038042581494	0.2982272527471528	-0.1557806720294776	0.01051665622593056	-0.003261042162726827	-0.1349533849224216	0.08029853830736514	0.04226222443083446	0.1486045552149418	-6.678978671551462	-20.47868337655265	6.691074024197298	-4.650346851689788	-503.9634255676589	-67.33448432416611	-39.2514080129267	0.02543692438087084	0.4338780663767404	-0.6483481369003354	0.007773874453416646	0.2446480163769493	0.1556994929133658	1.17659346575755	-0.05328812585126427	-0.05328812583664701	-0.008441327315335492	0.1576545611195724	0.07368627065385709	0.3498673105192602	-7.20991300108742e-09	4.006252038844939e-07	-1.054655132787976e-07	9.286014937662941e-08	2.602566762908665e-07	-1.070404723790582e-07	6.554294821331092e-08
1.58	-0.362469513805293	-0.03296035556428355	0.8196745225841078	0.8735148677587263	-0.3973319524567809	-0.3579579764607189	-0.1949553288792939	0.4316685090182159	0.4316685090182254	-0.1744843914879487	-0.1500192026910508	-0.05528383220611942	-0.07190777963659621	0.9067807302614769	0.451038715973833	0.365973656999779	-2.356612834512384	0.2421191665709659	-0.4835774294885476	0.419629760298081	-1.326791303259851	-1.326791303259793	0.0003759473020716859	0.106880849787405	0.08248201472212258	0.3016592376578172	-0.1488191328032118	0.00928402482388087	-0.003442405039526859	-0.1335669750883985	0.07832165320451413	0.04046686271771346	0.1430356432517181	-7.161877910363168	-19.69364120797486	6.65642301790522	-4.014066787415278	-501.2057198022628	-67.33449877959853	-39.51622705058014	-0.09025107498751236	0.3853529060634893	-0.69368169597622	0.2737212707591625	0.2350558836894968	0.2141742797925195	1.156242795177901	0.08347230833012421	0.08347230833012534	0.02369940061865096	0.1694338082261953	0.07721974237711818	0.342770673395909	-9.870994153873555e-10	3.83602407553882e-07	-1.238049840734229e-07	7.983303956552791e-08	2.823259655086453e-07	-1.011694923557968e-07	6.469673068887026e-08
1.59	-0.35340671192658	-0.02843143707250139	0.8232990318265694	0.8499643951222228	-0.3948998901143965	-0.3627830482083073	-0.1907031777615597	0.4184063226041745	0.4184063226041755	-0.1744805950400279	-0.1489427148853024	-0.05445555386164266	-0.06887514777308651	0.9056312940511048	0.4546616217054493	0.3588634583896381	-2.353110465683165	0.2442503251825933	-0.4813751197439176	0.4307061860617291	-1.325432824586076	-1.325432824586065	0.000382217750693026	0.1083976245244851	0.08316541249817576	0.3048196476720758	-0.1419312880308764	0.008091986463060558	-0.003643848194700124	-0.132247910298433	0.07641234888063116	0.03857567508954929	0.1375005109056675	-7.644026830203332	-18.86884274114457	6.617409088632166	-3.3304696256511	-498.7005703357268	-67.25492974210169	-39.76239357570233	-0.1495527523340505	0.3382668563934013	-0.7293357768808535	0.4441735403148301	0.1956397428326275	0.2325960421531704	1.06920088877345	0.1939964249579877	0.193996424951015	-0.01102034825692165	0.1398813580431911	0.06265992840016683	0.2955164728802933	5.470335524929722e-09	3.610331993974243e-07	-1.413496496349809e-07	6.599999093075231e-08	3.03212782352744e-07	-9.46015660222442e-08	6.321461730784748e-08
